<mxfile host="app.diagrams.net" agent="Mozilla/5.0 (Windows NT 10.0; Win64; x64) AppleWebKit/537.36 (KHTML, like Gecko) Chrome/131.0.0.0 Safari/537.36" version="25.0.3">
  <diagram name="Page-1" id="Vdtb8Olw2PHElar4_XgQ">
    <mxGraphModel dx="1434" dy="746" grid="1" gridSize="10" guides="1" tooltips="1" connect="1" arrows="1" fold="1" page="1" pageScale="1" pageWidth="850" pageHeight="1100" math="0" shadow="0">
      <root>
        <mxCell id="0" />
        <mxCell id="1" parent="0" />
        <mxCell id="Fc-uRJd9QYAe2ihed08n-6" style="edgeStyle=orthogonalEdgeStyle;rounded=0;orthogonalLoop=1;jettySize=auto;html=1;entryX=0.5;entryY=0;entryDx=0;entryDy=0;" edge="1" parent="1" source="Fc-uRJd9QYAe2ihed08n-1" target="Fc-uRJd9QYAe2ihed08n-4">
          <mxGeometry relative="1" as="geometry" />
        </mxCell>
        <mxCell id="Fc-uRJd9QYAe2ihed08n-1" value="&lt;font style=&quot;font-size: 24px;&quot;&gt;start&lt;/font&gt;" style="strokeWidth=2;html=1;shape=mxgraph.flowchart.start_1;whiteSpace=wrap;" vertex="1" parent="1">
          <mxGeometry x="375" y="40" width="100" height="60" as="geometry" />
        </mxCell>
        <mxCell id="Fc-uRJd9QYAe2ihed08n-16" style="edgeStyle=orthogonalEdgeStyle;rounded=0;orthogonalLoop=1;jettySize=auto;html=1;entryX=0.5;entryY=0;entryDx=0;entryDy=0;" edge="1" parent="1" source="Fc-uRJd9QYAe2ihed08n-2" target="Fc-uRJd9QYAe2ihed08n-8">
          <mxGeometry relative="1" as="geometry" />
        </mxCell>
        <mxCell id="Fc-uRJd9QYAe2ihed08n-23" style="edgeStyle=orthogonalEdgeStyle;rounded=0;orthogonalLoop=1;jettySize=auto;html=1;entryX=0.5;entryY=0;entryDx=0;entryDy=0;" edge="1" parent="1" source="Fc-uRJd9QYAe2ihed08n-2" target="Fc-uRJd9QYAe2ihed08n-22">
          <mxGeometry relative="1" as="geometry" />
        </mxCell>
        <mxCell id="Fc-uRJd9QYAe2ihed08n-2" value="for ( i = 3, i &amp;lt;= n, i++" style="rhombus;whiteSpace=wrap;html=1;" vertex="1" parent="1">
          <mxGeometry x="354" y="430" width="142" height="70" as="geometry" />
        </mxCell>
        <mxCell id="Fc-uRJd9QYAe2ihed08n-14" style="edgeStyle=orthogonalEdgeStyle;rounded=0;orthogonalLoop=1;jettySize=auto;html=1;entryX=0.5;entryY=0;entryDx=0;entryDy=0;" edge="1" parent="1" source="Fc-uRJd9QYAe2ihed08n-3" target="Fc-uRJd9QYAe2ihed08n-7">
          <mxGeometry relative="1" as="geometry" />
        </mxCell>
        <mxCell id="Fc-uRJd9QYAe2ihed08n-3" value="input n" style="shape=parallelogram;perimeter=parallelogramPerimeter;whiteSpace=wrap;html=1;fixedSize=1;" vertex="1" parent="1">
          <mxGeometry x="359" y="250" width="132" height="30" as="geometry" />
        </mxCell>
        <mxCell id="Fc-uRJd9QYAe2ihed08n-13" style="edgeStyle=orthogonalEdgeStyle;rounded=0;orthogonalLoop=1;jettySize=auto;html=1;entryX=0.5;entryY=0;entryDx=0;entryDy=0;" edge="1" parent="1" source="Fc-uRJd9QYAe2ihed08n-4" target="Fc-uRJd9QYAe2ihed08n-3">
          <mxGeometry relative="1" as="geometry" />
        </mxCell>
        <mxCell id="Fc-uRJd9QYAe2ihed08n-4" value="t1 = 1, t2 = 1" style="rounded=1;whiteSpace=wrap;html=1;absoluteArcSize=1;arcSize=14;strokeWidth=2;" vertex="1" parent="1">
          <mxGeometry x="335" y="160" width="180" height="40" as="geometry" />
        </mxCell>
        <mxCell id="Fc-uRJd9QYAe2ihed08n-5" value="&lt;font style=&quot;font-size: 24px;&quot;&gt;end&lt;/font&gt;" style="strokeWidth=2;html=1;shape=mxgraph.flowchart.start_1;whiteSpace=wrap;" vertex="1" parent="1">
          <mxGeometry x="375" y="1070" width="100" height="60" as="geometry" />
        </mxCell>
        <mxCell id="Fc-uRJd9QYAe2ihed08n-15" style="edgeStyle=orthogonalEdgeStyle;rounded=0;orthogonalLoop=1;jettySize=auto;html=1;entryX=0.5;entryY=0;entryDx=0;entryDy=0;" edge="1" parent="1" source="Fc-uRJd9QYAe2ihed08n-7" target="Fc-uRJd9QYAe2ihed08n-2">
          <mxGeometry relative="1" as="geometry" />
        </mxCell>
        <mxCell id="Fc-uRJd9QYAe2ihed08n-7" value="sum = t1 + t2" style="rounded=1;whiteSpace=wrap;html=1;absoluteArcSize=1;arcSize=14;strokeWidth=2;" vertex="1" parent="1">
          <mxGeometry x="335" y="330" width="180" height="40" as="geometry" />
        </mxCell>
        <mxCell id="Fc-uRJd9QYAe2ihed08n-17" style="edgeStyle=orthogonalEdgeStyle;rounded=0;orthogonalLoop=1;jettySize=auto;html=1;entryX=0.5;entryY=0;entryDx=0;entryDy=0;" edge="1" parent="1" source="Fc-uRJd9QYAe2ihed08n-8" target="Fc-uRJd9QYAe2ihed08n-9">
          <mxGeometry relative="1" as="geometry" />
        </mxCell>
        <mxCell id="Fc-uRJd9QYAe2ihed08n-8" value="nextTerm = t1 + t2" style="rounded=1;whiteSpace=wrap;html=1;absoluteArcSize=1;arcSize=14;strokeWidth=2;" vertex="1" parent="1">
          <mxGeometry x="510" y="520" width="180" height="40" as="geometry" />
        </mxCell>
        <mxCell id="Fc-uRJd9QYAe2ihed08n-18" style="edgeStyle=orthogonalEdgeStyle;rounded=0;orthogonalLoop=1;jettySize=auto;html=1;entryX=0.5;entryY=0;entryDx=0;entryDy=0;" edge="1" parent="1" source="Fc-uRJd9QYAe2ihed08n-9" target="Fc-uRJd9QYAe2ihed08n-10">
          <mxGeometry relative="1" as="geometry" />
        </mxCell>
        <mxCell id="Fc-uRJd9QYAe2ihed08n-9" value="output&lt;div&gt;&quot;+&quot;, nextTerm&lt;/div&gt;" style="shape=parallelogram;perimeter=parallelogramPerimeter;whiteSpace=wrap;html=1;fixedSize=1;" vertex="1" parent="1">
          <mxGeometry x="534" y="610" width="132" height="30" as="geometry" />
        </mxCell>
        <mxCell id="Fc-uRJd9QYAe2ihed08n-19" style="edgeStyle=orthogonalEdgeStyle;rounded=0;orthogonalLoop=1;jettySize=auto;html=1;entryX=0.5;entryY=0;entryDx=0;entryDy=0;" edge="1" parent="1" source="Fc-uRJd9QYAe2ihed08n-10" target="Fc-uRJd9QYAe2ihed08n-11">
          <mxGeometry relative="1" as="geometry" />
        </mxCell>
        <mxCell id="Fc-uRJd9QYAe2ihed08n-10" value="sum += nextTerm" style="rounded=1;whiteSpace=wrap;html=1;absoluteArcSize=1;arcSize=14;strokeWidth=2;" vertex="1" parent="1">
          <mxGeometry x="510" y="690" width="180" height="40" as="geometry" />
        </mxCell>
        <mxCell id="Fc-uRJd9QYAe2ihed08n-20" style="edgeStyle=orthogonalEdgeStyle;rounded=0;orthogonalLoop=1;jettySize=auto;html=1;entryX=0.5;entryY=0;entryDx=0;entryDy=0;" edge="1" parent="1" source="Fc-uRJd9QYAe2ihed08n-11" target="Fc-uRJd9QYAe2ihed08n-12">
          <mxGeometry relative="1" as="geometry" />
        </mxCell>
        <mxCell id="Fc-uRJd9QYAe2ihed08n-11" value="t1 = t2" style="rounded=1;whiteSpace=wrap;html=1;absoluteArcSize=1;arcSize=14;strokeWidth=2;" vertex="1" parent="1">
          <mxGeometry x="510" y="780" width="180" height="40" as="geometry" />
        </mxCell>
        <mxCell id="Fc-uRJd9QYAe2ihed08n-21" style="edgeStyle=orthogonalEdgeStyle;rounded=0;orthogonalLoop=1;jettySize=auto;html=1;entryX=1;entryY=1;entryDx=0;entryDy=0;" edge="1" parent="1" source="Fc-uRJd9QYAe2ihed08n-12" target="Fc-uRJd9QYAe2ihed08n-2">
          <mxGeometry relative="1" as="geometry">
            <mxPoint x="530" y="970" as="targetPoint" />
          </mxGeometry>
        </mxCell>
        <mxCell id="Fc-uRJd9QYAe2ihed08n-12" value="t2 = nextTerm" style="rounded=1;whiteSpace=wrap;html=1;absoluteArcSize=1;arcSize=14;strokeWidth=2;" vertex="1" parent="1">
          <mxGeometry x="510" y="870" width="180" height="40" as="geometry" />
        </mxCell>
        <mxCell id="Fc-uRJd9QYAe2ihed08n-22" value="output&lt;br&gt;&quot;Sum = &quot;, sum" style="shape=parallelogram;perimeter=parallelogramPerimeter;whiteSpace=wrap;html=1;fixedSize=1;" vertex="1" parent="1">
          <mxGeometry x="359" y="980" width="132" height="30" as="geometry" />
        </mxCell>
        <mxCell id="Fc-uRJd9QYAe2ihed08n-24" style="edgeStyle=orthogonalEdgeStyle;rounded=0;orthogonalLoop=1;jettySize=auto;html=1;entryX=0.5;entryY=0;entryDx=0;entryDy=0;entryPerimeter=0;" edge="1" parent="1" source="Fc-uRJd9QYAe2ihed08n-22" target="Fc-uRJd9QYAe2ihed08n-5">
          <mxGeometry relative="1" as="geometry" />
        </mxCell>
      </root>
    </mxGraphModel>
  </diagram>
</mxfile>
